<svg width="500" height="400" xmlns="http://www.w3.org/2000/svg">
  <defs>
    <style>
      .hardware-bg { fill: #2a2a2a; stroke: #555; stroke-width: 2; }
      .screen-bg { fill: #000; stroke: #333; stroke-width: 1; }
      .text-title { fill: #fff; font-family: Arial, sans-serif; font-size: 14px; font-weight: bold; }
      .text-label { fill: #ddd; font-family: Arial, sans-serif; font-size: 11px; }
      .text-small { fill: #bbb; font-family: Arial, sans-serif; font-size: 9px; }
      .encoder { fill: #666; stroke: #999; stroke-width: 2; }
      .encoder-ring { fill: none; stroke: #888; stroke-width: 1; }
      .encoder-dot { fill: #fff; }
      .pot { fill: #555; stroke: #888; stroke-width: 2; }
      .pot-indicator { stroke: #fff; stroke-width: 2; fill: none; }
      .jack { fill: #333; stroke: #777; stroke-width: 1.5; }
      .jack-tip { fill: #666; }
      .button { fill: #444; stroke: #888; stroke-width: 1; }
      .led-red { fill: #ff0000; opacity: 0.8; }
      .led-green { fill: #00ff00; opacity: 0.8; }
      .led-blue { fill: #0066ff; opacity: 0.8; }
      .led-off { fill: #333; opacity: 0.3; }
      .annotation-line { stroke: #ff6600; stroke-width: 2; fill: none; marker-end: url(#arrowhead); }
      .annotation-text { fill: #ff6600; font-family: Arial, sans-serif; font-size: 10px; font-weight: bold; }
    </style>
    <marker id="arrowhead" markerWidth="10" markerHeight="7" refX="9" refY="3.5" orient="auto">
      <polygon points="0 0, 10 3.5, 0 7" fill="#ff6600"/>
    </marker>
  </defs>
  
  <!-- Main Hardware Panel -->
  <rect x="50" y="50" width="300" height="200" class="hardware-bg" rx="10"/>
  
  <!-- Expert Sleepers Logo Area -->
  <rect x="60" y="60" width="80" height="20" fill="#1a1a1a" rx="2"/>
  <text x="100" y="73" class="text-small" text-anchor="middle">Expert Sleepers</text>
  
  <!-- Disting NT Title -->
  <text x="200" y="75" class="text-title" text-anchor="middle">Disting NT</text>
  
  <!-- Main Display -->
  <rect x="80" y="90" width="240" height="60" class="screen-bg" rx="4"/>
  <text x="200" y="110" class="text-label" text-anchor="middle">DnB Seq - Two-Step</text>
  <text x="200" y="125" class="text-small" text-anchor="middle">♪ ♪ ♪ ♪ ♪ ♪ ♪ ♪</text>
  <text x="200" y="140" class="text-small" text-anchor="middle">Pattern visualization</text>
  
  <!-- Left Encoder -->
  <circle cx="120" cy="180" r="15" class="encoder"/>
  <circle cx="120" cy="180" r="12" class="encoder-ring"/>
  <circle cx="120" cy="167" r="2" class="encoder-dot"/>
  <text x="120" y="205" class="text-small" text-anchor="middle">L ENCODER</text>
  
  <!-- Right Encoder -->
  <circle cx="280" cy="180" r="15" class="encoder"/>
  <circle cx="280" cy="180" r="12" class="encoder-ring"/>
  <circle cx="273" cy="173" r="2" class="encoder-dot"/>
  <text x="280" y="205" class="text-small" text-anchor="middle">R ENCODER</text>
  
  <!-- Left Pot -->
  <circle cx="90" cy="220" r="10" class="pot"/>
  <line x1="90" y1="213" x2="90" y2="220" class="pot-indicator"/>
  <text x="90" y="240" class="text-small" text-anchor="middle">L POT</text>
  
  <!-- Center Pot -->
  <circle cx="200" cy="220" r="10" class="pot"/>
  <line x1="207" y1="220" x2="200" y2="220" class="pot-indicator"/>
  <text x="200" y="240" class="text-small" text-anchor="middle">C POT</text>
  
  <!-- Right Pot -->
  <circle cx="310" cy="220" r="10" class="pot"/>
  <line x1="310" y1="213" x2="310" y2="220" class="pot-indicator"/>
  <text x="310" y="240" class="text-small" text-anchor="middle">R POT</text>
  
  <!-- CV Input Jacks (Top Row) -->
  <g transform="translate(80, 270)">
    <text x="80" y="0" class="text-label" text-anchor="middle">CV INPUTS</text>
    
    <!-- Input 1 -->
    <circle cx="20" cy="15" r="8" class="jack"/>
    <circle cx="20" cy="15" r="3" class="jack-tip"/>
    <text x="20" y="30" class="text-small" text-anchor="middle">1</text>
    
    <!-- Input 2 -->
    <circle cx="50" cy="15" r="8" class="jack"/>
    <circle cx="50" cy="15" r="3" class="jack-tip"/>
    <text x="50" y="30" class="text-small" text-anchor="middle">2</text>
    
    <!-- Input 3 -->
    <circle cx="80" cy="15" r="8" class="jack"/>
    <circle cx="80" cy="15" r="3" class="jack-tip"/>
    <text x="80" y="30" class="text-small" text-anchor="middle">3</text>
    
    <!-- Input 4 -->
    <circle cx="110" cy="15" r="8" class="jack"/>
    <circle cx="110" cy="15" r="3" class="jack-tip"/>
    <text x="110" y="30" class="text-small" text-anchor="middle">4</text>
    
    <!-- Input 5 -->
    <circle cx="140" cy="15" r="8" class="jack"/>
    <circle cx="140" cy="15" r="3" class="jack-tip"/>
    <text x="140" y="30" class="text-small" text-anchor="middle">5</text>
  </g>
  
  <!-- CV Output Jacks (Bottom Row) -->
  <g transform="translate(80, 320)">
    <text x="80" y="0" class="text-label" text-anchor="middle">CV OUTPUTS</text>
    
    <!-- Output 15 -->
    <circle cx="20" cy="15" r="8" class="jack"/>
    <circle cx="20" cy="15" r="3" class="jack-tip"/>
    <text x="20" y="30" class="text-small" text-anchor="middle">15</text>
    
    <!-- Output 16 -->
    <circle cx="50" cy="15" r="8" class="jack"/>
    <circle cx="50" cy="15" r="3" class="jack-tip"/>
    <text x="50" y="30" class="text-small" text-anchor="middle">16</text>
    
    <!-- Output 17 -->
    <circle cx="80" cy="15" r="8" class="jack"/>
    <circle cx="80" cy="15" r="3" class="jack-tip"/>
    <text x="80" y="30" class="text-small" text-anchor="middle">17</text>
    
    <!-- Output 18 -->
    <circle cx="110" cy="15" r="8" class="jack"/>
    <circle cx="110" cy="15" r="3" class="jack-tip"/>
    <text x="110" y="30" class="text-small" text-anchor="middle">18</text>
    
    <!-- Output 19 -->
    <circle cx="140" cy="15" r="8" class="jack"/>
    <circle cx="140" cy="15" r="3" class="jack-tip"/>
    <text x="140" y="30" class="text-small" text-anchor="middle">19</text>
  </g>
  
  <!-- Status LEDs -->
  <g transform="translate(360, 100)">
    <circle cx="0" cy="0" r="3" class="led-green"/>
    <text x="10" y="4" class="text-small">PWR</text>
    
    <circle cx="0" cy="15" r="3" class="led-blue"/>
    <text x="10" y="19" class="text-small">ACT</text>
    
    <circle cx="0" cy="30" r="3" class="led-off"/>
    <text x="10" y="34" class="text-small">ERR</text>
  </g>
  
  <!-- Annotations -->
  <!-- Pattern Selection -->
  <path d="M 40 180 L 105 180" class="annotation-line"/>
  <text x="30" y="175" class="annotation-text">Pattern</text>
  <text x="30" y="185" class="annotation-text">Selection</text>
  
  <!-- Variation Control -->
  <path d="M 460 180 L 295 180" class="annotation-line"/>
  <text x="470" y="175" class="annotation-text">Variation</text>
  <text x="470" y="185" class="annotation-text">Control</text>
  
  <!-- Clock Input -->
  <path d="M 40 285 L 92 285" class="annotation-line"/>
  <text x="15" y="280" class="annotation-text">Clock In</text>
  <text x="25" y="290" class="annotation-text">(CV1)</text>
  
  <!-- Reset Input -->
  <path d="M 40 315 L 122 315" class="annotation-line"/>
  <text x="15" y="310" class="annotation-text">Reset In</text>
  <text x="25" y="320" class="annotation-text">(CV2)</text>
  
  <!-- Drum Outputs -->
  <path d="M 460 335 L 200 335" class="annotation-line"/>
  <text x="470" y="330" class="annotation-text">Drum Outputs</text>
  <text x="465" y="340" class="annotation-text">15-18: K/S/H/G</text>
  
  <!-- Probability Controls -->
  <path d="M 40 235 L 85 235" class="annotation-line"/>
  <text x="15" y="230" class="annotation-text">BD Prob</text>
  <text x="25" y="240" class="annotation-text">(L Pot)</text>
  
  <path d="M 460 235 L 315 235" class="annotation-line"/>
  <text x="470" y="230" class="annotation-text">SN/GH Prob</text>
  <text x="475" y="240" class="annotation-text">(R Pot)</text>
  
  <!-- Title -->
  <text x="250" y="30" class="text-title" text-anchor="middle">Disting NT Hardware Layout</text>
  <text x="250" y="45" class="text-label" text-anchor="middle">DnB Sequencer Control Mapping</text>
</svg>